<?xml version="1.0" encoding="UTF-8" standalone="no"?>
<svg
   xmlns:dc="http://purl.org/dc/elements/1.1/"
   xmlns:cc="http://creativecommons.org/ns#"
   xmlns:rdf="http://www.w3.org/1999/02/22-rdf-syntax-ns#"
   xmlns:svg="http://www.w3.org/2000/svg"
   xmlns="http://www.w3.org/2000/svg"
   xmlns:sodipodi="http://sodipodi.sourceforge.net/DTD/sodipodi-0.dtd"
   xmlns:inkscape="http://www.inkscape.org/namespaces/inkscape"
   inkscape:version="1.0 (4035a4fb49, 2020-05-01)"
   sodipodi:docname="negev.svg"
   xml:space="preserve"
   style="enable-background:new 0 0 115.9 32;"
   viewBox="0 0 115.9 32"
   height="32px"
   width="115.9px"
   y="0px"
   x="0px"
   id="Layer_1"
   version="1.1"><metadata
   id="metadata34"><rdf:RDF><cc:Work
       rdf:about=""><dc:format>image/svg+xml</dc:format><dc:type
         rdf:resource="http://purl.org/dc/dcmitype/StillImage" /><dc:title>negev</dc:title></cc:Work></rdf:RDF></metadata><defs
   id="defs32"><pattern
     id="EMFhbasepattern"
     patternUnits="userSpaceOnUse"
     width="6"
     height="6"
     x="0"
     y="0" /></defs><sodipodi:namedview
   inkscape:current-layer="Layer_1"
   inkscape:window-maximized="1"
   inkscape:window-y="-8"
   inkscape:window-x="1592"
   inkscape:cy="27.695718"
   inkscape:cx="63.765181"
   inkscape:zoom="4.7770889"
   showgrid="false"
   id="namedview30"
   inkscape:window-height="1017"
   inkscape:window-width="1920"
   inkscape:pageshadow="2"
   inkscape:pageopacity="0"
   guidetolerance="10"
   gridtolerance="10"
   objecttolerance="10"
   borderopacity="1"
   bordercolor="#666666"
   pagecolor="#ffffff" />
<title
   id="title23">negev</title>

<path
   id="path75"
   d="m 42.515947,28.800706 c -2.60506,-0.297754 -2.827694,-0.351993 -2.943594,-0.717168 -0.106086,-0.334243 0.51219,-2.806255 1.00319,-4.011017 0.467745,-1.147696 1.48058,-2.703939 2.234163,-3.432844 0.720487,-0.696889 0.935558,-1.291618 0.798235,-2.207341 -0.08533,-0.569024 -0.223023,-0.803935 -0.786959,-1.342583 -0.375946,-0.359085 -0.92412,-1.05961 -1.218166,-1.556718 -0.458066,-0.774405 -0.594036,-0.903836 -0.949466,-0.903836 -0.228159,0 -0.455056,0.06508 -0.504212,0.144611 -0.04916,0.07954 -0.640725,0.144615 -1.314597,0.144615 -0.953587,0 -1.243605,-0.04791 -1.308142,-0.216089 -0.0456,-0.11885 -0.141182,-0.180088 -0.212381,-0.136079 -0.0712,0.04401 -0.129376,-0.03771 -0.129268,-0.1816 1.08e-4,-0.243582 -0.164399,-0.258649 -2.388392,-0.21869 l -2.388583,0.04293 -0.08812,-0.440605 c -0.08343,-0.417141 -0.124846,-0.44061 -0.777645,-0.44061 -0.479502,0 -0.714871,0.06607 -0.772759,0.216921 -0.06544,0.17055 -0.361034,0.216922 -1.38275,0.216922 h -1.299508 l -0.09231,-0.492055 -0.09231,-0.492052 -1.921709,-0.102926 c -2.884136,-0.154474 -5.955531,-0.03192 -6.637356,0.264836 -0.307944,0.134026 -3.268912,2.010417 -6.579926,4.169752 -4.5760482,2.984349 -6.125371,4.068336 -6.4592031,4.519208 -0.4867805,0.657442 -1.1835143,1.048735 -2.3807967,1.337068 -0.8711199,0.209789 -3.12159612,0.265376 -3.23620396,0.07994 -0.0394684,-0.06387 0.0222158,-1.088822 0.13710721,-2.277669 C 1.0750927,18.172211 1.1036925,13.280971 0.88432075,10.501334 0.79671499,9.3913196 0.69605015,8.3958395 0.66062782,8.2891585 0.62520548,8.1824803 0.70504045,7.86588 0.83804199,7.5855974 L 1.0798639,7.0759989 2.8270064,7.1435254 C 4.739127,7.217433 5.7016966,7.5094011 6.0714681,8.1276546 L 6.2672627,8.4550157 15.543671,8.3581847 C 20.645692,8.3049147 25.512738,8.2210728 26.359327,8.171854 L 27.89858,8.082367 27.98521,7.5405764 c 0.07137,-0.4463819 0.156847,-0.5555974 0.485343,-0.6202009 0.680152,-0.1337588 2.206377,0.061401 2.206377,0.2821365 0,0.1408725 0.220905,0.1960073 0.785318,0.1960073 0.699731,0 0.790353,-0.034817 0.83153,-0.3194523 0.06413,-0.4433605 0.434009,-0.5144113 2.866179,-0.550588 1.153296,-0.017168 1.978082,-0.061902 1.832859,-0.09944 -0.242121,-0.062582 -0.260131,-0.228778 -0.216924,-2.001912 0.05337,-2.1901627 0.140707,-2.366087 1.178867,-2.3747172 0.442197,-0.00369 0.732519,0.1333173 1.445982,0.6823162 l 0.892699,0.6869144 h 1.988593 c 1.093726,0 1.988593,0.048809 1.988593,0.1084612 0,0.059652 0.298936,0.1084602 0.664302,0.1084602 0.542679,0 0.678147,0.052949 0.739934,0.2892275 0.0416,0.1590753 0.133121,0.2892266 0.203383,0.2892266 0.07027,0 0.127747,0.3950323 0.127747,0.87785 v 0.8778518 l 2.032761,-0.103188 c 1.759072,-0.089288 2.136067,-0.068075 2.800029,0.1576176 0.723309,0.2458586 0.809312,0.2470459 1.501293,0.020713 0.530451,-0.1735004 1.252803,-0.2400881 2.604509,-0.2400881 h 1.870476 l 0.08975,-0.561263 0.08975,-0.5612658 1.266407,-0.099053 c 1.981787,-0.1550084 3.132432,-0.3647706 3.260978,-0.5944731 0.159112,-0.2843146 0.970017,-0.2773095 0.970017,0.00841 0,0.1820407 0.312015,0.2169204 1.940456,0.2169204 1.067256,0 2.043398,0.039497 2.16921,0.087776 0.18536,0.071128 0.228747,-0.023199 0.228747,-0.4972862 0,-0.5783379 0.0071,-0.5861371 0.620636,-0.6781359 0.341348,-0.051191 1.82183,-0.07145 3.289964,-0.045018 l 2.669328,0.048052 1.828384,1.2653705 c 2.051605,1.4198588 2.009432,1.4091083 4.098731,1.044764 0.912245,-0.15908 1.317518,-0.1770672 1.453162,-0.064492 0.266059,0.2208087 7.733084,-0.5852021 8.38263,-0.9048425 0.159074,-0.078285 0.685152,-0.5515514 1.169071,-1.0517115 0.783262,-0.8095586 0.971947,-0.9285028 1.718873,-1.0835651 0.949386,-0.1970888 19.763636,-0.1411561 20.211456,0.060087 0.19997,0.089865 0.21933,0.1706464 0.0961,0.400953 -0.1234,0.2305883 -0.0936,0.3530965 0.14871,0.6110092 0.23453,0.2496438 0.28184,0.4287256 0.2092,0.7919156 -0.0831,0.4155114 -0.0229,0.5416677 0.52537,1.100277 0.61866,0.6303691 0.61934,0.6322693 0.73783,2.0505636 0.15955,1.9099472 0.20466,2.0519722 0.86786,2.7326466 l 0.57482,0.589972 -0.62054,0.277428 c -0.34129,0.152584 -0.77319,0.440245 -0.95978,0.639246 l -0.33924,0.361818 -7.79528,0.0398 -7.795283,0.0398 v 1.521375 c 0,1.404705 -0.02609,1.547477 -0.340337,1.861704 -0.291886,0.29189 -0.4617,0.334932 -1.193062,0.302423 -1.19899,-0.0533 -1.146003,-0.03867 -1.637009,-0.451832 -0.270303,-0.22744 -0.44494,-0.511245 -0.44494,-0.723069 0,-0.337502 -0.03474,-0.348679 -1.084608,-0.348679 -0.765371,0 -1.087859,0.0532 -1.095666,0.180766 -0.032,0.522303 -0.162339,0.776518 -0.659182,1.285323 -0.523354,0.535965 -0.58357,0.55849 -1.492158,0.558172 l -0.94679,-2.52e-4 0.04649,1.306117 c 0.03697,1.03911 -0.01686,1.49669 -0.263698,2.238345 -0.266467,0.800714 -0.285345,1.001055 -0.133832,1.420049 0.346994,0.959605 -0.101049,1.543775 -1.184036,1.543775 -1.187359,0 -1.798911,-0.93756 -1.149812,-1.762754 0.232459,-0.295524 0.257478,-0.451558 0.148061,-0.923338 -0.192224,-0.828839 -0.166997,-2.378242 0.05067,-3.111629 0.17236,-0.580734 0.123727,-1.457444 -0.09285,-1.674029 -0.04498,-0.04497 -4.022169,-0.03334 -8.83821,0.02584 -8.201414,0.100783 -8.756438,0.123642 -8.756438,0.360628 0,0.321304 -0.338863,0.60685 -0.678293,0.571566 -0.143931,-0.01496 -0.440657,-0.01971 -0.659385,-0.01054 l -0.397687,0.01664 v 1.373831 1.373832 h 0.795377 0.795376 v 0.578455 c 0,0.582214 -0.104539,0.668765 -0.706345,0.584786 -0.110107,-0.01536 -0.354143,0.01069 -0.542303,0.05793 l -0.342105,0.08587 v 3.511362 c 0,2.538237 -0.04809,3.559452 -0.173535,3.684894 -0.125373,0.125374 -1.140844,0.173538 -3.658731,0.173538 -2.517886,0 -3.533358,-0.04817 -3.658728,-0.173538 -0.116896,-0.116894 -0.173538,-0.777702 -0.173538,-2.024592 0,-1.137628 -0.05573,-1.851056 -0.144611,-1.851056 -0.08436,0 -0.144616,-0.482048 -0.144616,-1.156912 v -1.15691 H 58.08122 56.996615 v -1.57188 -1.57183 l 0.542303,-0.08964 c 0.298265,-0.0493 0.786336,-0.09035 1.084602,-0.09123 0.445363,-0.0012 0.542302,-0.05329 0.542302,-0.290822 0,-0.261483 -0.09641,-0.289226 -1.00511,-0.289226 -0.785977,0 -1.034389,-0.05232 -1.139405,-0.239968 -0.102366,-0.182923 -0.181621,-0.01961 -0.333369,0.686915 -0.179882,0.837513 -0.236345,0.931199 -0.585592,0.97164 -0.244999,0.02837 -0.569516,0.266642 -0.886326,0.650764 -0.361838,0.438716 -0.745087,0.699527 -1.38833,0.944793 -0.848484,0.323525 -0.967552,0.332272 -2.642315,0.194148 -1.187852,-0.09797 -1.858359,-0.097 -2.077825,0.0029 -0.216374,0.09859 -0.839117,1.115143 -1.874357,3.059664 l -1.550327,2.912027 0.1309,1.048889 c 0.072,0.576891 0.07638,1.146309 0.0097,1.265372 -0.147785,0.264076 -0.404989,0.258369 -3.307598,-0.0734 z m 11.17145,-8.844962 c 1.300156,-0.523386 1.859802,-1.262161 1.862305,-2.458373 5.01e-4,-0.212099 0.08215,-0.421194 0.181572,-0.464653 0.09942,-0.04346 -0.580049,-0.07028 -1.509936,-0.05958 -1.122917,0.0129 -1.760474,-0.03848 -1.898467,-0.153004 -0.168533,-0.139868 -0.224384,-0.110411 -0.295764,0.155997 -0.244074,0.91097 -0.06483,1.600223 0.602099,2.315363 0.20321,0.217898 0.327392,0.438263 0.275959,0.489695 -0.111422,0.11142 -1.393124,-0.422655 -2.128745,-0.887033 l -0.52226,-0.329686 -0.406189,0.642045 c -0.223405,0.353125 -0.362568,0.685667 -0.309255,0.73898 0.08423,0.08423 1.507819,0.231133 2.919464,0.301258 0.24789,0.01233 0.801038,-0.118636 1.229217,-0.290999 z M 15.443032,13.007471 c 0.584055,-0.791642 0.429462,-1.858263 -0.366796,-2.530719 -0.370452,-0.312856 -0.468112,-0.320301 -4.268767,-0.325381 l -3.8896369,-0.0052 0.093524,1.106421 c 0.051437,0.608532 0.093524,2.525228 0.093524,4.259321 v 3.152901 L 11.10461,16.065671 c 2.348945,-1.526413 4.139514,-2.788604 4.338415,-3.058198 z m 52.399648,1.251876 v -0.659076 l -0.614609,0.04447 c -0.563195,0.04074 -0.610431,0.07471 -0.564658,0.406001 0.02747,0.198843 0.108818,0.383227 0.180766,0.409738 0.07195,0.02651 0.13082,0.140397 0.13082,0.253075 0,0.131224 0.155955,0.20487 0.433839,0.20487 0.418586,0 0.433842,-0.0232 0.433842,-0.659078 z M 33.683937,13.321792 c 0.18864,-0.30206 0.126372,-0.572574 -0.131794,-0.572574 -0.07954,0 -0.105228,0.06374 -0.05709,0.141626 0.04815,0.0779 0.01714,0.27312 -0.06887,0.433839 -0.204612,0.382324 0.01875,0.379816 0.257741,-0.0028 z m 0.319117,0.150496 c 0,-0.07953 -0.0287,-0.144615 -0.06377,-0.144615 -0.03507,0 -0.103992,0.06508 -0.153152,0.144615 -0.04916,0.07954 -0.02046,0.144612 0.06377,0.144612 0.08423,0 0.153148,-0.06508 0.153148,-0.144612 z M 33.231779,13.08665 c -0.05303,-0.05302 -0.139795,-0.05302 -0.192819,0 -0.05303,0.05302 -0.0096,0.09641 0.09641,0.09641 0.106051,0 0.149434,-0.04338 0.09641,-0.09641 z m 0.988193,-0.0482 c 0.04916,-0.07954 0.02046,-0.144614 -0.06377,-0.144614 -0.08423,0 -0.153146,0.06508 -0.153146,0.144614 0,0.07954 0.02869,0.144613 0.06376,0.144613 0.03507,0 0.103993,-0.06508 0.153149,-0.144613 z m 2.458436,0 c 0.04916,-0.07954 0.02046,-0.144614 -0.06377,-0.144614 -0.08423,0 -0.153149,0.06508 -0.153149,0.144614 0,0.07954 0.02869,0.144613 0.06377,0.144613 0.03507,0 0.10399,-0.06508 0.153149,-0.144613 z M 32.2354,10.326939 32.195383,8.1938859 31.544621,8.24554 c -0.357919,0.028417 -0.698572,0.1260258 -0.757008,0.2169204 -0.127453,0.1982563 -0.143467,3.2096706 -0.01952,3.6721516 0.07541,0.281413 0.183143,0.325382 0.797264,0.325382 h 0.71007 z m -5.101502,1.409985 c -0.04916,-0.07953 -0.248227,-0.144614 -0.442377,-0.144614 -0.194151,0 -0.353,0.06508 -0.353,0.144614 0,0.07954 0.19907,0.144613 0.442376,0.144613 0.258094,0 0.405145,-0.06025 0.353001,-0.144613 z m 0.939989,-1.312952 c 0,-0.245138 -0.109134,-0.277804 -0.928163,-0.277804 -0.510487,0 -1.031098,-0.0395 -1.15691,-0.08778 -0.170078,-0.065258 -0.228749,0.0027 -0.228749,0.265125 0,0.194095 0.02683,0.380018 0.05961,0.41316 0.03279,0.03314 0.553397,0.03884 1.156911,0.01268 0.969334,-0.04203 1.097297,-0.07998 1.097297,-0.325379 z M 88.042788,7.0821645 c -0.04613,-0.115366 -0.08043,-0.081092 -0.08738,0.087369 -0.0065,0.1524465 0.0279,0.23786 0.07596,0.1898058 0.04808,-0.048052 0.0532,-0.1727847 0.01139,-0.2771762 z M 46.005997,6.5308249 c 0,-0.079542 -0.09761,-0.1446143 -0.216922,-0.1446143 -0.119306,0 -0.216918,0.065078 -0.216918,0.1446143 0,0.079542 0.09761,0.1446152 0.216918,0.1446152 0.119308,0 0.216922,-0.065078 0.216922,-0.1446152 z M 59.262262,4.6990507 c -0.05302,-0.053034 -0.139792,-0.053034 -0.192819,0 -0.05302,0.053025 -0.0096,0.09641 0.09641,0.09641 0.106047,0 0.149433,-0.043382 0.09641,-0.09641 z"
   style="fill:#ffffff;stroke-width:0.144614" /></svg>
